<svg id="Capa_1" enable-background="new 0 0 496.796 496.796" height="512" viewBox="0 0 496.796 496.796" width="512" xmlns="http://www.w3.org/2000/svg"><g><path d="m467.573 158.173v-36.35c0-37.203-30.159-67.361-67.361-67.361-37.203 0-67.361 30.159-67.361 67.361v84.709h31v-84.709c0-20.05 16.312-36.361 36.361-36.361s36.362 16.312 36.362 36.361v36.35 48.359h32.469z" fill="#f8f7f8"/><g><path d="m432.834 265.566c-1.687-.514-2.9-1.997-3.09-3.75-4.476-41.291-39.426-73.438-81.908-73.438-8.697 0-17.079 1.35-24.949 3.847-1.913.607-3.995-.132-5.082-1.819-22.538-34.988-61.837-58.159-106.55-58.159-60.947 0-111.831 43.053-123.919 100.403-.363 1.723-1.732 3.066-3.459 3.406-47.584 9.38-83.531 51.17-83.874 101.424-.395 57.67 47.718 104.855 105.389 104.855h300.046c49.771 0 90.952-39.827 91.355-89.597.332-41.043-26.709-75.815-63.959-87.172z" fill="#badafb"/><path d="m491.254 320.805c-9.708-26.384-31.365-46.99-58.42-55.239-1.687-.514-2.9-1.997-3.09-3.75-4.476-41.291-39.426-73.438-81.908-73.438-8.697 0-17.078 1.349-24.949 3.847-1.913.607-3.995-.131-5.082-1.819-7.567-11.748-17.031-22.154-27.948-30.808-3.951 6.592-6.229 14.296-6.229 22.524v98.79c0 24.233 19.715 43.949 43.949 43.949h145.271c6.57 0 12.803-1.46 18.406-4.056z" fill="#97c9f9"/><g fill="#efedee"><path d="m436.573 138.173v20 48.359h32.469l-1.469-48.359v-20z"/><path d="m332.85 138.173h31v68.359h-31z"/></g><path d="m472.847 304.861h-145.271c-13.227 0-23.949-10.722-23.949-23.949v-98.79c0-13.227 10.722-23.949 23.949-23.949h145.271c13.227 0 23.949 10.722 23.949 23.949v98.79c0 13.226-10.722 23.949-23.949 23.949z" fill="#fbe88c"/><path d="m365.633 279.876c-13.227 0-23.949-10.722-23.949-23.949v-97.754h-14.108c-13.227 0-23.949 10.722-23.949 23.949v98.79c0 13.227 10.722 23.949 23.949 23.949h145.271c13.227 0 23.949-10.722 23.949-23.949v-1.036z" fill="#fbe372"/></g></g><path d="m432.958 405.024h-300.047c-3.852 0-7.66-.211-11.414-.622-33.655-3.686-59.376-32.205-59.321-66.061 0-.179.001-.358.002-.537.305-44.606 28.659-82.543 68.304-97.066 11.023-4.038 19.644-12.838 23.572-23.901 14.109-39.74 47.505-70.357 88.924-80.584-10.137-2.614-20.771-4.006-31.724-4.006-60.947 0-111.831 43.052-123.919 100.403-.363 1.723-1.732 3.066-3.459 3.407-47.584 9.38-83.53 51.169-83.874 101.423-.397 57.995 47.392 104.856 105.389 104.856h300.046c38.49 0 71.84-23.813 85.169-57.629-15.783 12.718-35.897 20.317-57.648 20.317z" fill="#97c9f9"/></svg>