<svg id="Capa_1" enable-background="new 0 0 512 512" height="512" viewBox="0 0 512 512" width="512" xmlns="http://www.w3.org/2000/svg"><g><g><g><path d="m512 512h-160v-30h130v-130h30z" fill="#304b59"/></g><g><path d="m30 160h-30v-160h160v30h-130z" fill="#557f89"/></g><g><path d="m512 160h-30v-130h-130v-30h160z" fill="#304b59"/></g><g><path d="m160 512h-160v-160h30v130h130z" fill="#557f89"/></g></g><g><path d="m61 61h150v150h-150z" fill="#557f89"/><path d="m61 301.5h150v149h-150z" fill="#557f89"/><g fill="#304b59"><path d="m301 61h150v150h-150z"/><path d="m301 301h150v150h-150z"/></g></g><g><path d="m121 121h30v30h-30z" fill="#304b59"/></g><g><path d="m121 361h30v30h-30z" fill="#304b59"/></g><g><path d="m361 361h30v30h-30z" fill="#002030"/></g><g><path d="m361 121h30v30h-30z" fill="#002030"/></g><path d="m445.75 241h-174.75v-180h-30v180h-174.75v30h174.75v180h30v-180h174.75z" fill="#557f89"/><path d="m445.75 241v30h-174.75v180h-14.99v-390h14.99v180z" fill="#304b59"/></g></svg>